<svg width="52" height="52" viewBox="0 0 52 52" fill="none" xmlns="http://www.w3.org/2000/svg">
<path d="M34.8237 37.9844H10.1806C9.15687 37.9844 8.32812 37.1556 8.32812 36.1319V16.4775C8.32812 15.4538 9.15687 14.625 10.1806 14.625H41.21C42.2337 14.625 43.0625 15.4538 43.0625 16.4775V30.5256C43.0788 31.0456 43.875 31.0619 43.875 30.5256V16.4775C43.875 15.0069 42.6806 13.8125 41.21 13.8125H10.1806C8.71 13.8125 7.51562 15.0069 7.51562 16.4775V36.1319C7.51562 37.6025 8.71 38.7969 10.1806 38.7969H34.8237C35.3438 38.7969 35.295 37.9925 34.8237 37.9844Z" fill="black"/>
<path d="M34.9375 18.6875C35.3844 18.6875 35.75 18.3219 35.75 17.875V17.0625C35.75 16.6156 35.3844 16.25 34.9375 16.25H17.0625C16.6156 16.25 16.25 16.6156 16.25 17.0625V17.875C16.25 18.3219 16.6156 18.6875 17.0625 18.6875H34.9375ZM17.0625 17.0625H34.9375V17.875H17.0625V17.0625ZM39.585 21.125H12.415C12.1875 21.125 12.0087 21.3038 12.0087 21.5312C12.0087 21.7587 12.1875 21.9375 12.415 21.9375H39.585C39.8125 21.9375 39.9912 21.7587 39.9912 21.5312C39.9912 21.3038 39.8125 21.125 39.585 21.125ZM34.5069 25.1875H37.7812C38.0087 25.1875 38.1875 25.0087 38.1875 24.7812C38.1875 24.5538 38.0087 24.375 37.7812 24.375H34.5069C34.2794 24.375 34.1006 24.5538 34.1006 24.7812C34.1006 25.0087 34.2794 25.1875 34.5069 25.1875ZM29.8594 24.7812C29.8594 24.5538 29.6806 24.375 29.4531 24.375H12.415C12.1875 24.375 12.0087 24.5538 12.0087 24.7812C12.0087 25.0087 12.1875 25.1875 12.415 25.1875H29.4531C29.6806 25.1875 29.8594 25.0087 29.8594 24.7812ZM25.1875 28.0312C25.1875 27.8038 25.0087 27.625 24.7812 27.625H12.415C12.1875 27.625 12.0087 27.8038 12.0087 28.0312C12.0087 28.2587 12.1875 28.4375 12.415 28.4375H24.7812C25.0087 28.4375 25.1875 28.2587 25.1875 28.0312ZM27.625 28.0312C27.625 28.2587 27.8037 28.4375 28.0312 28.4375H32.9306C33.1581 28.4375 33.3369 28.2587 33.3369 28.0312C33.3369 27.8038 33.1581 27.625 32.9306 27.625H28.0312C27.8037 27.625 27.625 27.8038 27.625 28.0312ZM38.5937 27.625H35.2462C35.0187 27.625 34.84 27.8038 34.84 28.0312C34.84 28.2587 35.0187 28.4375 35.2462 28.4375H38.5937C38.8212 28.4375 39 28.2587 39 28.0312C39 27.8038 38.8212 27.625 38.5937 27.625Z" fill="black"/>
<path d="M47.6694 37.31L46.3125 35.7012L47.0275 33.7106C47.2062 33.2069 47.1331 32.6463 46.8244 32.2156C46.6863 32.0206 46.5156 31.8581 46.3125 31.7444V12.1875C46.3125 11.7406 45.9469 11.375 45.5 11.375H5.89062C5.44375 11.375 5.07812 11.7406 5.07812 12.1875V40.4219C5.07812 40.8687 5.44375 41.2344 5.89062 41.2344H36.3513C36.6356 41.4781 37.0012 41.6081 37.3831 41.6081C37.4806 41.6081 37.5781 41.6081 37.6756 41.5837L39 41.3481V46.3125C39 46.6375 39.195 46.9381 39.5037 47.06C39.6012 47.1087 39.7069 47.125 39.8125 47.125C40.0238 47.125 40.235 47.0438 40.3894 46.8894L41.4375 45.8331L42.4856 46.8894C42.64 47.0438 42.8512 47.125 43.0625 47.125C43.1681 47.125 43.2738 47.1087 43.3713 47.06C43.68 46.9381 43.875 46.6375 43.875 46.3125V42.4044C43.875 42.4044 43.8994 42.3556 43.9075 42.3312L44.3056 41.2344H45.5C45.9469 41.2344 46.3125 40.8687 46.3125 40.4219V40.0481L46.7025 39.975C47.2875 39.8694 47.7506 39.4794 47.9538 38.9188C48.1569 38.3663 48.0512 37.765 47.6694 37.31ZM5.89062 40.4219V12.1875H45.5V31.5169H45.4919C45.3944 31.5169 45.2969 31.525 45.1994 31.5413L43.875 31.7769L43.1275 31.9069L43.0625 31.8337L41.7625 30.2981C41.4456 29.9244 40.9906 29.7131 40.5112 29.7131C39.8125 29.7131 39.2113 30.1356 38.9675 30.7938L38.2525 32.7763L36.1725 33.15C35.5875 33.2556 35.1244 33.6456 34.9212 34.2062C34.7181 34.7587 34.8238 35.36 35.2056 35.815L36.5625 37.4238L36.3594 37.9844L36.0669 38.7969L35.8475 39.4144C35.7337 39.7394 35.7175 40.0969 35.8231 40.4219H5.89062ZM43.0625 46.3125L41.4375 44.6875L39.8125 46.3125V41.2913L41.1125 42.8269C41.4294 43.2006 41.8844 43.4119 42.3638 43.4119C42.6156 43.4119 42.8512 43.355 43.0625 43.2575V46.3125ZM45.5 40.4219H44.5981L44.6225 40.3487L45.5 40.1944V40.4219ZM46.5562 39.1788L46.3125 39.2194L45.5 39.3656L44.4844 39.5444C44.2081 39.5931 43.9806 39.78 43.875 40.04C43.8669 40.0481 43.8587 40.0644 43.8587 40.0725L43.7287 40.4219L43.4362 41.2344L43.1437 42.055C43.1194 42.1119 43.095 42.1687 43.0625 42.2175C42.9 42.4612 42.6319 42.5994 42.3638 42.5994C42.1362 42.5994 41.9006 42.5019 41.7381 42.3069L40.8363 41.2344L40.3813 40.6981C40.2675 40.56 40.1131 40.4625 39.9506 40.4219C39.91 40.4137 39.8613 40.4056 39.8125 40.4056C39.7962 40.3975 39.7719 40.3975 39.7475 40.3975C39.6987 40.3975 39.65 40.4056 39.6094 40.4138H39.5606L39 40.5194L37.5375 40.7794C37.4806 40.7956 37.4319 40.7956 37.3831 40.7956C37.0987 40.7956 36.8469 40.6413 36.6925 40.4219C36.5625 40.2188 36.5219 39.9506 36.6113 39.6906L36.9362 38.7969L37.2369 37.9844L37.3344 37.7162C37.4319 37.44 37.375 37.1231 37.1881 36.9037L35.8312 35.295C35.425 34.8075 35.6931 34.06 36.3188 33.9462L38.3906 33.5806C38.675 33.5319 38.9188 33.3288 39.0163 33.0525L39.7313 31.07C39.8613 30.7206 40.1862 30.5256 40.5112 30.5256C40.7388 30.5256 40.9744 30.6231 41.1369 30.8181L42.4937 32.4269C42.64 32.6056 42.8431 32.7113 43.0625 32.7194C43.0869 32.7275 43.1031 32.7275 43.1275 32.7275C43.1763 32.7275 43.225 32.7194 43.2656 32.7112L43.875 32.5975L45.3375 32.3375C45.3944 32.3294 45.4431 32.3294 45.4919 32.3294H45.5C45.955 32.3375 46.3125 32.7113 46.3125 33.15C46.3125 33.2475 46.2962 33.3369 46.2637 33.4344L45.5406 35.4088C45.5244 35.4575 45.5163 35.4981 45.5 35.5469V35.8312C45.5325 35.9775 45.5894 36.1075 45.6869 36.2213L46.3125 36.9606L47.0438 37.83C47.45 38.3175 47.1819 39.065 46.5562 39.1788Z" fill="#095D40"/>
<path d="M43.0625 33.7502C42.5831 33.474 42.0306 33.3115 41.4375 33.3115C39.6419 33.3115 38.1875 34.7658 38.1875 36.5615C38.1875 37.0733 38.3094 37.5527 38.5206 37.9833C38.6425 38.2515 38.805 38.4952 39 38.7065C39.0244 38.739 39.0569 38.7715 39.0812 38.7958C39.2925 39.0233 39.5362 39.2183 39.8125 39.3727C40.2919 39.649 40.8444 39.8115 41.4375 39.8115C42.0306 39.8115 42.5831 39.649 43.0625 39.3727C43.3712 39.194 43.6475 38.9746 43.875 38.7065C44.3787 38.1296 44.6875 37.3821 44.6875 36.5615C44.6875 35.7408 44.3787 34.9933 43.875 34.4165C43.6475 34.1483 43.3712 33.929 43.0625 33.7502ZM43.6394 37.6096C43.5012 37.9021 43.3062 38.1621 43.0625 38.3733C42.6319 38.7633 42.0631 38.999 41.4375 38.999C41.0962 38.999 40.7631 38.9258 40.4706 38.7958C40.2269 38.6983 40.0075 38.5521 39.8125 38.3733C39.6825 38.2596 39.5606 38.1296 39.455 37.9833C39.3737 37.8696 39.3006 37.7396 39.2356 37.6096C39.0894 37.2927 39 36.9352 39 36.5615C39 35.2127 40.0887 34.124 41.4375 34.124C42.0631 34.124 42.6319 34.3596 43.0625 34.7496C43.5175 35.1477 43.8181 35.7165 43.8587 36.3583C43.875 36.4233 43.875 36.4965 43.875 36.5615C43.875 36.9352 43.7856 37.2927 43.6394 37.6096ZM27.2187 34.9365H33.7187C33.9462 34.9365 34.125 34.7577 34.125 34.5302C34.125 34.3027 33.9462 34.124 33.7187 34.124H27.2187C26.9912 34.124 26.8125 34.3027 26.8125 34.5302C26.8125 34.7577 26.9912 34.9365 27.2187 34.9365ZM17.2494 34.059C17.3712 34.1321 17.485 34.1646 17.6069 34.1646C17.8994 34.1646 18.1919 33.9696 18.4844 33.7827C18.8906 33.5146 19.3375 33.214 19.8412 33.3033C20.1012 33.3521 20.2556 33.474 20.4587 33.6365C20.7025 33.8315 21.0112 34.0833 21.5069 34.124C22.1569 34.1808 22.8069 33.8558 23.4569 33.1896C23.6112 33.0271 23.6112 32.7671 23.4487 32.6127C23.2862 32.4583 23.0344 32.4583 22.8719 32.6208C22.4006 33.1083 21.9862 33.344 21.5719 33.3115C21.3281 33.2952 21.1737 33.1733 20.9706 33.0027C20.735 32.8158 20.4506 32.5802 19.9875 32.499C19.175 32.3608 18.525 32.7833 18.0456 33.1002C17.9562 33.1652 17.8425 33.2383 17.745 33.2871C17.7612 33.1083 17.8262 32.8321 17.8669 32.6452C18.0131 32.0115 18.1675 31.3615 17.7612 30.9796C17.29 30.5327 16.3069 30.5083 12.3662 33.3846C12.1875 33.5146 12.1469 33.7746 12.2769 33.9533C12.415 34.1321 12.6669 34.1727 12.8456 34.0427C16.4694 31.394 17.1437 31.5565 17.1925 31.5565C17.2575 31.6783 17.1437 32.1902 17.0787 32.4583C16.9325 33.084 16.7862 33.7421 17.2656 34.0508L17.2494 34.059Z" fill="black"/>
</svg>
