<svg width="52" height="52" viewBox="0 0 52 52" fill="none" xmlns="http://www.w3.org/2000/svg">
<path d="M17.4291 46H10.2862C9.14997 45.9987 8.06065 45.5385 7.25721 44.7204C6.45377 43.9024 6.00181 42.7933 6.00049 41.6364V26.3636C6.00181 25.2067 6.45377 24.0976 7.25721 23.2796C8.06065 22.4615 9.14997 22.0013 10.2862 22H21.7148C22.851 22.0013 23.9403 22.4615 24.7438 23.2796C25.5472 24.0976 25.9992 25.2067 26.0005 26.3636V37.2727C26.0004 37.4656 25.9252 37.6506 25.7912 37.7869L17.9341 45.7869C17.8001 45.9233 17.6185 46 17.4291 46ZM10.2862 23.4545C9.52867 23.4553 8.80239 23.7621 8.26673 24.3074C7.73108 24.8528 7.42982 25.5923 7.42906 26.3636V41.6364C7.42982 42.4077 7.73108 43.1472 8.26673 43.6926C8.80239 44.2379 9.52867 44.5447 10.2862 44.5455H17.1333L24.5719 36.9716V26.3636C24.5712 25.5923 24.2699 24.8528 23.7342 24.3074C23.1986 23.7621 22.4723 23.4553 21.7148 23.4545H10.2862Z" fill="#095D40"/>
<path d="M17.5006 46C17.3127 46 17.1325 45.9263 16.9997 45.795C16.8669 45.6637 16.7922 45.4857 16.7922 45.3V41.1C16.7935 39.9865 17.2417 38.919 18.0385 38.1316C18.8352 37.3442 19.9155 36.9013 21.0423 36.9H25.2923C25.4324 36.9 25.5693 36.9411 25.6858 37.018C25.8022 37.0949 25.893 37.2043 25.9466 37.3321C26.0002 37.46 26.0142 37.6008 25.9869 37.7365C25.9596 37.8723 25.8921 37.997 25.7931 38.0949L18.0014 45.7949C17.8686 45.9262 17.6884 46 17.5006 46ZM21.0423 38.3C20.291 38.3007 19.5708 38.596 19.0396 39.1209C18.5084 39.6459 18.2097 40.3576 18.2089 41.1V43.6102L23.5824 38.3H21.0423ZM12.8964 32.7C12.1258 32.7 11.3726 32.4742 10.7319 32.0512C10.0913 31.6281 9.59191 31.0268 9.29705 30.3233C9.00218 29.6198 8.92503 28.8457 9.07535 28.0989C9.22567 27.3521 9.59672 26.6661 10.1416 26.1276C10.6864 25.5892 11.3806 25.2225 12.1363 25.074C12.892 24.9254 13.6754 25.0017 14.3872 25.2931C15.0991 25.5845 15.7076 26.0779 16.1357 26.7111C16.5637 27.3442 16.7922 28.0885 16.7922 28.85C16.7909 29.8707 16.38 30.8492 15.6497 31.5709C14.9194 32.2927 13.9292 32.6987 12.8964 32.7ZM12.8964 26.4C12.406 26.4 11.9267 26.5437 11.519 26.8129C11.1113 27.0821 10.7935 27.4647 10.6059 27.9124C10.4182 28.3601 10.3691 28.8527 10.4648 29.328C10.5605 29.8032 10.7966 30.2398 11.1433 30.5824C11.49 30.9251 11.9318 31.1584 12.4127 31.2529C12.8936 31.3475 13.3921 31.2989 13.8451 31.1135C14.2981 30.9281 14.6853 30.614 14.9577 30.2111C15.2301 29.8082 15.3755 29.3346 15.3755 28.85C15.3748 28.2004 15.1134 27.5777 14.6486 27.1184C14.1838 26.6591 13.5536 26.4007 12.8964 26.4Z" fill="#02342E"/>
<path d="M13.2005 30.6673C13.1086 30.6673 13.0175 30.649 12.9326 30.6134C12.8477 30.5778 12.7706 30.5256 12.7056 30.4598L11.3056 29.0432C11.1781 28.9096 11.1075 28.7307 11.1091 28.5449C11.1107 28.3592 11.1843 28.1816 11.3141 28.0503C11.4439 27.9189 11.6195 27.8444 11.803 27.8428C11.9865 27.8412 12.1634 27.9126 12.2954 28.0416L13.1536 28.91L16.1622 25.2552C16.2811 25.1107 16.4519 25.02 16.6369 25.0029C16.7285 24.9945 16.8209 25.0044 16.9087 25.032C16.9966 25.0597 17.0781 25.1046 17.1488 25.1642C17.2195 25.2238 17.2779 25.2968 17.3207 25.3793C17.3635 25.4617 17.3898 25.5518 17.3982 25.6445C17.4065 25.7372 17.3967 25.8307 17.3694 25.9196C17.342 26.0084 17.2977 26.091 17.2388 26.1625L13.7388 30.4123C13.6764 30.488 13.5991 30.5496 13.5118 30.5934C13.4246 30.6372 13.3293 30.6621 13.232 30.6666L13.2005 30.6673ZM21.6005 27.1258H18.8005C18.6148 27.1258 18.4368 27.0512 18.3055 26.9184C18.1742 26.7855 18.1005 26.6054 18.1005 26.4175C18.1005 26.2297 18.1742 26.0495 18.3055 25.9167C18.4368 25.7838 18.6148 25.7092 18.8005 25.7092H21.6005C21.7861 25.7092 21.9642 25.7838 22.0955 25.9167C22.2267 26.0495 22.3005 26.2297 22.3005 26.4175C22.3005 26.6054 22.2267 26.7855 22.0955 26.9184C21.9642 27.0512 21.7861 27.1258 21.6005 27.1258ZM22.3005 29.2507H18.1005C17.9148 29.2507 17.7368 29.1761 17.6055 29.0432C17.4742 28.9104 17.4005 28.7302 17.4005 28.5424C17.4005 28.3545 17.4742 28.1744 17.6055 28.0416C17.7368 27.9087 17.9148 27.8341 18.1005 27.8341H22.3005C22.4861 27.8341 22.6642 27.9087 22.7955 28.0416C22.9267 28.1744 23.0005 28.3545 23.0005 28.5424C23.0005 28.7302 22.9267 28.9104 22.7955 29.0432C22.6642 29.1761 22.4861 29.2507 22.3005 29.2507ZM12.8505 42C12.089 42 11.3447 41.7715 10.7115 41.3435C10.0784 40.9154 9.58495 40.307 9.29355 39.5952C9.00216 38.8833 8.92591 38.1001 9.07447 37.3444C9.22302 36.5887 9.5897 35.8946 10.1281 35.3498C10.6666 34.8049 11.3526 34.4339 12.0994 34.2836C12.8462 34.1333 13.6203 34.2104 14.3238 34.5053C15.0273 34.8001 15.6286 35.2995 16.0516 35.9401C16.4747 36.5807 16.7005 37.3339 16.7005 38.1044C16.6992 39.1372 16.2932 40.1273 15.5714 40.8576C14.8497 41.5878 13.8712 41.9987 12.8505 42ZM12.8505 35.6253C12.3659 35.6253 11.8922 35.7707 11.4893 36.0431C11.0864 36.3155 10.7724 36.7027 10.587 37.1557C10.4015 37.6087 10.353 38.1071 10.4476 38.588C10.5421 39.0689 10.7754 39.5106 11.1181 39.8573C11.4607 40.204 11.8973 40.4401 12.3725 40.5358C12.8478 40.6314 13.3404 40.5823 13.7881 40.3947C14.2357 40.2071 14.6184 39.8893 14.8876 39.4817C15.1568 39.074 15.3005 38.5947 15.3005 38.1044C15.2997 37.4471 15.0414 36.817 14.5821 36.3523C14.1228 35.8875 13.5 35.6261 12.8505 35.6253ZM21.6005 36.3336H18.8005C18.6148 36.3336 18.4368 36.259 18.3055 36.1262C18.1742 35.9934 18.1005 35.8132 18.1005 35.6253C18.1005 35.4375 18.1742 35.2573 18.3055 35.1245C18.4368 34.9917 18.6148 34.9171 18.8005 34.9171H21.6005C21.7861 34.9171 21.9642 34.9917 22.0955 35.1245C22.2267 35.2573 22.3005 35.4375 22.3005 35.6253C22.3005 35.8132 22.2267 35.9934 22.0955 36.1262C21.9642 36.259 21.7861 36.3336 21.6005 36.3336Z" fill="black"/>
<path d="M30.9896 36.0039C29.9822 36.0032 28.9773 35.9027 27.9897 35.7039C27.8083 35.6621 27.6504 35.5513 27.5495 35.395C27.4487 35.2388 27.4127 35.0493 27.4494 34.867C27.4861 34.6847 27.5925 34.5238 27.7459 34.4186C27.8994 34.3134 28.0879 34.2722 28.2713 34.3037C29.1662 34.4839 30.0767 34.5748 30.9896 34.5752C33.6469 34.5761 36.246 33.7978 38.4651 32.3369C40.6841 30.8759 42.4256 28.7965 43.4737 26.3561C44.5219 23.9158 44.8306 21.2217 44.3618 18.6077C43.8929 15.9937 42.6671 13.5746 40.836 11.65C39.005 9.72542 36.6493 8.37997 34.0606 7.7803C31.472 7.18064 28.7642 7.35312 26.2727 8.27636C23.7811 9.19961 21.6153 10.8331 20.0436 12.9744C18.4719 15.1157 17.5632 17.6708 17.4302 20.3231C17.4179 20.5114 17.3327 20.6875 17.1928 20.8142C17.0528 20.9408 16.8691 21.0081 16.6804 21.0018C16.5866 20.9972 16.4947 20.9742 16.4098 20.9341C16.3249 20.894 16.2487 20.8376 16.1857 20.768C16.1226 20.6985 16.0739 20.6173 16.0423 20.5289C16.0106 20.4406 15.9967 20.3468 16.0014 20.2531C16.1483 17.322 17.1525 14.4983 18.8894 12.1319C20.6262 9.76545 23.0196 7.96022 25.773 6.9398C28.5263 5.91937 31.5187 5.72858 34.3795 6.39106C37.2403 7.05354 39.8438 8.54019 41.8675 10.6669C43.8912 12.7935 45.2462 15.4668 45.7647 18.3555C46.2832 21.2442 45.9424 24.2215 44.7844 26.9185C43.6265 29.6155 41.7024 31.9139 39.2504 33.5288C36.7984 35.1437 33.9262 36.0043 30.9896 36.0039Z" fill="#095D40"/>
<path d="M30.99 33.0039C29.9773 33.0055 28.9684 32.8793 27.9872 32.6284C27.8956 32.6068 27.8093 32.5673 27.7332 32.512C27.6571 32.4567 27.5929 32.3867 27.5442 32.3063C27.4956 32.2258 27.4635 32.1365 27.4498 32.0435C27.4362 31.9505 27.4413 31.8557 27.4648 31.7647C27.4884 31.6737 27.5298 31.5883 27.5868 31.5135C27.6438 31.4387 27.7152 31.3761 27.7968 31.3293C27.8784 31.2824 27.9685 31.2523 28.0618 31.2407C28.1552 31.2291 28.2499 31.2363 28.3405 31.2618C30.4536 31.8071 32.6837 31.6875 34.7263 30.9194C36.7689 30.1512 38.5244 28.772 39.7531 26.9699C40.9818 25.1679 41.6238 23.0309 41.5916 20.8507C41.5593 18.6705 40.8543 16.5534 39.5728 14.7884C38.2912 13.0234 36.4957 11.6967 34.4313 10.9892C32.3669 10.2817 30.1342 10.2281 28.0381 10.8356C25.9421 11.4431 24.0848 12.6821 22.7198 14.3835C21.3548 16.0849 20.5488 18.1657 20.4116 20.3418C20.3978 20.527 20.3115 20.6993 20.1714 20.8213C20.0313 20.9434 19.8487 21.0054 19.6632 20.9939C19.4777 20.9823 19.3042 20.8983 19.1803 20.7598C19.0564 20.6214 18.9921 20.4397 19.0014 20.2543C19.1478 17.9174 19.9753 15.6744 21.3819 13.8016C22.7885 11.9288 24.7127 10.5081 26.9176 9.71439C29.1224 8.9207 31.5115 8.78876 33.7905 9.33483C36.0695 9.88091 38.1388 11.0811 39.7434 12.7876C41.3481 14.4941 42.418 16.6323 42.8213 18.9388C43.2246 21.2453 42.9437 23.6192 42.0132 25.7682C41.0828 27.9172 39.5434 29.7472 37.5847 31.0329C35.626 32.3186 33.3336 33.0037 30.99 33.0039Z" fill="#095D40"/>
<path d="M31.0005 23C30.6049 23 30.2182 22.8827 29.8893 22.6629C29.5605 22.4432 29.3041 22.1308 29.1527 21.7654C29.0014 21.3999 28.9617 20.9978 29.0389 20.6098C29.1161 20.2219 29.3066 19.8655 29.5863 19.5858C29.866 19.3061 30.2223 19.1156 30.6103 19.0384C30.9983 18.9613 31.4004 19.0009 31.7659 19.1522C32.1313 19.3036 32.4437 19.56 32.6634 19.8889C32.8832 20.2178 33.0005 20.6044 33.0005 21C33 21.5303 32.7891 22.0387 32.4141 22.4136C32.0392 22.7886 31.5308 22.9995 31.0005 23ZM31.0005 20.3333C30.8686 20.3333 30.7397 20.3724 30.6301 20.4457C30.5205 20.5189 30.435 20.6231 30.3846 20.7449C30.3341 20.8667 30.3209 21.0007 30.3466 21.1301C30.3724 21.2594 30.4358 21.3782 30.5291 21.4714C30.6223 21.5646 30.7411 21.6281 30.8704 21.6539C30.9997 21.6796 31.1338 21.6664 31.2556 21.6159C31.3774 21.5655 31.4815 21.48 31.5548 21.3704C31.6281 21.2607 31.6672 21.1319 31.6672 21C31.667 20.8232 31.5967 20.6538 31.4717 20.5288C31.3467 20.4038 31.1772 20.3335 31.0005 20.3333Z" fill="black"/>
<path d="M29.6965 20.7193C29.6037 20.7194 29.5118 20.7016 29.4261 20.6671C29.3404 20.6325 29.2625 20.5818 29.197 20.5178L27.1988 18.5729C27.0701 18.4432 26.9989 18.2696 27.0005 18.0893C27.0021 17.9091 27.0764 17.7366 27.2074 17.6092C27.3384 17.4817 27.5157 17.4094 27.7009 17.4078C27.8862 17.4063 28.0646 17.4755 28.1979 17.6008L30.196 19.5457C30.2948 19.6419 30.3621 19.7644 30.3893 19.8977C30.4166 20.031 30.4026 20.1693 30.3491 20.2949C30.2957 20.4205 30.2051 20.5278 30.089 20.6034C29.9728 20.6789 29.8362 20.7193 29.6965 20.7193ZM31.6947 20.7193C31.5549 20.7193 31.4184 20.6789 31.3022 20.6034C31.186 20.5278 31.0955 20.4205 31.042 20.2949C30.9886 20.1693 30.9746 20.031 31.0018 19.8977C31.0291 19.7644 31.0963 19.6419 31.1951 19.5457L35.6916 15.1705C35.8249 15.0452 36.0034 14.9759 36.1886 14.9775C36.3739 14.9791 36.5511 15.0514 36.6821 15.1788C36.8131 15.3063 36.8874 15.4787 36.889 15.659C36.8906 15.8393 36.8194 16.0129 36.6907 16.1426L32.1942 20.5178C32.1287 20.5818 32.0508 20.6325 31.9651 20.6671C31.8793 20.7016 31.7874 20.7194 31.6947 20.7193ZM30.6956 12.0664C30.5082 12.0664 30.3285 11.994 30.196 11.865C30.0635 11.7361 29.989 11.5612 29.989 11.3789V10.6914C29.989 10.5091 30.0635 10.3342 30.196 10.2053C30.3285 10.0763 30.5082 10.0039 30.6956 10.0039C30.883 10.0039 31.0627 10.0763 31.1952 10.2053C31.3277 10.3342 31.4021 10.5091 31.4021 10.6914V11.3789C31.4021 11.5612 31.3277 11.7361 31.1952 11.865C31.0627 11.994 30.883 12.0664 30.6956 12.0664ZM30.6956 32.0039C30.5082 32.0039 30.3285 31.9315 30.196 31.8025C30.0635 31.6736 29.989 31.4987 29.989 31.3164V30.6289C29.989 30.4466 30.0635 30.2717 30.196 30.1428C30.3285 30.0138 30.5082 29.9414 30.6956 29.9414C30.883 29.9414 31.0627 30.0138 31.1952 30.1428C31.3277 30.2717 31.4021 30.4466 31.4021 30.6289V31.3164C31.4021 31.4987 31.3277 31.6736 31.1952 31.8025C31.0627 31.9315 30.883 32.0039 30.6956 32.0039ZM41.2939 21.6914H40.5874C40.4 21.6914 40.2203 21.619 40.0878 21.49C39.9553 21.3611 39.8808 21.1862 39.8808 21.0039C39.8808 20.8216 39.9553 20.6467 40.0878 20.5178C40.2203 20.3888 40.4 20.3164 40.5874 20.3164H41.2939C41.4813 20.3164 41.661 20.3888 41.7935 20.5178C41.926 20.6467 42.0005 20.8216 42.0005 21.0039C42.0005 21.1862 41.926 21.3611 41.7935 21.49C41.661 21.619 41.4813 21.6914 41.2939 21.6914Z" fill="black"/>
</svg>
