<svg width="40" height="41" viewBox="0 0 40 41" fill="none" xmlns="http://www.w3.org/2000/svg">
<path d="M26.6667 5.44287C28.8768 5.44287 30.9964 6.32084 32.5592 7.88365C34.122 9.44645 35 11.5661 35 13.7762V27.1095C35 29.3197 34.122 31.4393 32.5592 33.0021C30.9964 34.5649 28.8768 35.4429 26.6667 35.4429H13.3333C11.1232 35.4429 9.00358 34.5649 7.44078 33.0021C5.87797 31.4393 5 29.3197 5 27.1095V13.7762C5 11.5661 5.87797 9.44645 7.44078 7.88365C9.00358 6.32084 11.1232 5.44287 13.3333 5.44287H26.6667ZM20 13.7762C18.2319 13.7762 16.5362 14.4786 15.286 15.7288C14.0357 16.9791 13.3333 18.6748 13.3333 20.4429C13.3333 22.211 14.0357 23.9067 15.286 25.1569C16.5362 26.4072 18.2319 27.1095 20 27.1095C21.7681 27.1095 23.4638 26.4072 24.714 25.1569C25.9643 23.9067 26.6667 22.211 26.6667 20.4429C26.6667 18.6748 25.9643 16.9791 24.714 15.7288C23.4638 14.4786 21.7681 13.7762 20 13.7762ZM20 17.1095C20.8841 17.1095 21.7319 17.4607 22.357 18.0858C22.9821 18.711 23.3333 19.5588 23.3333 20.4429C23.3333 21.3269 22.9821 22.1748 22.357 22.7999C21.7319 23.425 20.8841 23.7762 20 23.7762C19.1159 23.7762 18.2681 23.425 17.643 22.7999C17.0179 22.1748 16.6667 21.3269 16.6667 20.4429C16.6667 19.5588 17.0179 18.711 17.643 18.0858C18.2681 17.4607 19.1159 17.1095 20 17.1095ZM27.5 11.2762C27.058 11.2762 26.634 11.4518 26.3215 11.7644C26.0089 12.0769 25.8333 12.5008 25.8333 12.9429C25.8333 13.3849 26.0089 13.8088 26.3215 14.1214C26.634 14.4339 27.058 14.6095 27.5 14.6095C27.942 14.6095 28.366 14.4339 28.6785 14.1214C28.9911 13.8088 29.1667 13.3849 29.1667 12.9429C29.1667 12.5008 28.9911 12.0769 28.6785 11.7644C28.366 11.4518 27.942 11.2762 27.5 11.2762Z" fill="white"/>
</svg>
