<svg width="40" height="41" viewBox="0 0 40 41" fill="none" xmlns="http://www.w3.org/2000/svg">
<path d="M31.6667 5.44287C32.5507 5.44287 33.3986 5.79406 34.0237 6.41918C34.6488 7.0443 35 7.89215 35 8.7762V32.1095C35 32.9936 34.6488 33.8414 34.0237 34.4666C33.3986 35.0917 32.5507 35.4429 31.6667 35.4429H8.33333C7.44928 35.4429 6.60143 35.0917 5.97631 34.4666C5.35119 33.8414 5 32.9936 5 32.1095V8.7762C5 7.89215 5.35119 7.0443 5.97631 6.41918C6.60143 5.79406 7.44928 5.44287 8.33333 5.44287H31.6667ZM30.8333 31.2762V22.4429C30.8333 21.0019 30.2609 19.6199 29.2419 18.6009C28.223 17.582 26.841 17.0095 25.4 17.0095C23.9833 17.0095 22.3333 17.8762 21.5333 19.1762V17.3262H16.8833V31.2762H21.5333V23.0595C21.5333 21.7762 22.5667 20.7262 23.85 20.7262C24.4688 20.7262 25.0623 20.972 25.4999 21.4096C25.9375 21.8472 26.1833 22.4407 26.1833 23.0595V31.2762H30.8333ZM11.4667 14.7095C12.2093 14.7095 12.9215 14.4145 13.4466 13.8894C13.9717 13.3643 14.2667 12.6521 14.2667 11.9095C14.2667 10.3595 13.0167 9.09287 11.4667 9.09287C10.7196 9.09287 10.0032 9.38963 9.47498 9.91785C8.94675 10.4461 8.65 11.1625 8.65 11.9095C8.65 13.4595 9.91667 14.7095 11.4667 14.7095ZM13.7833 31.2762V17.3262H9.16667V31.2762H13.7833Z" fill="white"/>
</svg>
