<svg width="52" height="52" viewBox="0 0 52 52" fill="none" xmlns="http://www.w3.org/2000/svg">
<path d="M22.3936 26C22.3936 26.7133 22.6051 27.4105 23.0013 28.0036C23.3976 28.5966 23.9608 29.0589 24.6198 29.3318C25.2788 29.6048 26.0039 29.6762 26.7034 29.537C27.403 29.3979 28.0456 29.0544 28.5499 28.5501C29.0543 28.0457 29.3977 27.4031 29.5369 26.7036C29.676 26.004 29.6046 25.2789 29.3317 24.6199C29.0587 23.9609 28.5965 23.3977 28.0034 23.0014C27.4104 22.6052 26.7131 22.3937 25.9999 22.3937C25.0438 22.3948 24.1271 22.7751 23.4511 23.4512C22.775 24.1272 22.3947 25.0439 22.3936 26ZM28.5515 26C28.5515 26.5047 28.4018 26.998 28.1215 27.4176C27.8411 27.8372 27.4426 28.1643 26.9763 28.3574C26.5101 28.5505 25.997 28.6011 25.5021 28.5026C25.0071 28.4042 24.5525 28.1611 24.1956 27.8043C23.8388 27.4474 23.5957 26.9928 23.4973 26.4978C23.3988 26.0028 23.4494 25.4898 23.6425 25.0235C23.8356 24.5573 24.1627 24.1588 24.5823 23.8784C25.0019 23.598 25.4952 23.4484 25.9999 23.4484C26.6764 23.4491 27.325 23.7182 27.8033 24.1965C28.2817 24.6749 28.5507 25.3235 28.5515 26ZM10.707 41.4336H13.8007C13.9406 41.4336 14.0747 41.378 14.1736 41.2791C14.2725 41.1802 14.3281 41.0461 14.3281 40.9062V37.8125C14.3281 37.6726 14.2725 37.5385 14.1736 37.4396C14.0747 37.3407 13.9406 37.2852 13.8007 37.2852H10.707C10.5672 37.2852 10.433 37.3407 10.3341 37.4396C10.2352 37.5385 10.1797 37.6726 10.1797 37.8125V40.9062C10.1797 41.0461 10.2352 41.1802 10.3341 41.2791C10.433 41.378 10.5672 41.4336 10.707 41.4336ZM11.2344 38.3398H13.2734V40.3789H11.2344V38.3398ZM38.0584 41.4336H41.1521C41.292 41.4336 41.4261 41.378 41.525 41.2791C41.6239 41.1802 41.6794 41.0461 41.6794 40.9062V37.8125C41.6794 37.6726 41.6239 37.5385 41.525 37.4396C41.4261 37.3407 41.292 37.2852 41.1521 37.2852H38.0584C37.9185 37.2852 37.7844 37.3407 37.6855 37.4396C37.5866 37.5385 37.531 37.6726 37.531 37.8125V40.9062C37.531 41.0461 37.5866 41.1802 37.6855 41.2791C37.7844 41.378 37.9185 41.4336 38.0584 41.4336ZM38.5857 38.3398H40.6248V40.3789H38.5857V38.3398ZM43.9997 29.2977C44.0001 29.2941 44.0001 29.2906 43.9997 29.2871C43.998 29.2682 43.9952 29.2494 43.9913 29.2309L41.8819 19.3871C41.857 19.2682 41.7917 19.1616 41.6971 19.0854C41.6025 19.0091 41.4845 18.9679 41.363 18.9688H29.8417C29.8288 18.968 29.8159 18.968 29.803 18.9688L29.3418 18.6875V15.0137C29.3429 14.9954 29.3429 14.9771 29.3418 14.9588C29.3418 14.9588 29.3418 14.9546 29.3418 14.9525C29.3418 14.9363 29.3376 14.9202 29.3341 14.9047V14.897C29.3341 14.8822 29.327 14.8667 29.3221 14.852C29.3211 14.8486 29.32 14.8453 29.3186 14.8421C29.3137 14.8287 29.3088 14.8154 29.3031 14.8027L29.2968 14.7887L29.2799 14.7556L29.2701 14.7395L29.2518 14.7113C29.2477 14.7052 29.2433 14.6993 29.2384 14.6937C29.2328 14.6853 29.2258 14.6776 29.2195 14.6698C29.2131 14.6621 29.2089 14.6586 29.204 14.653C29.1991 14.6473 29.1899 14.6382 29.1822 14.6312C29.1796 14.6282 29.1767 14.6254 29.1738 14.6227L26.5272 12.2356V11.5859H29.3748C29.5147 11.5859 29.6488 11.5304 29.7477 11.4315C29.8466 11.3326 29.9022 11.1985 29.9022 11.0586V8.52734C29.9022 8.38748 29.8466 8.25335 29.7477 8.15446C29.6488 8.05556 29.5147 8 29.3748 8H25.9999C25.86 8 25.7259 8.05556 25.627 8.15446C25.5281 8.25335 25.4725 8.38748 25.4725 8.52734V12.2356L22.8316 14.6227L22.8232 14.6312L22.8014 14.653C22.7965 14.6586 22.7908 14.6635 22.7859 14.6698C22.781 14.6762 22.7726 14.6853 22.7669 14.6937C22.7621 14.6993 22.7576 14.7052 22.7536 14.7113L22.7353 14.7395L22.7254 14.7556L22.7086 14.7887L22.7022 14.8027C22.6966 14.8154 22.6917 14.8287 22.6868 14.8421C22.6818 14.8555 22.6868 14.8491 22.6868 14.852C22.6818 14.8667 22.6783 14.8822 22.6748 14.897V14.9047C22.6748 14.9202 22.6692 14.9363 22.6671 14.9525C22.6671 14.9525 22.6671 14.9567 22.6671 14.9588C22.666 14.9771 22.666 14.9954 22.6671 15.0137V18.6917L22.203 18.9688H10.6367C10.516 18.9687 10.399 19.0101 10.3052 19.086C10.2114 19.1619 10.1465 19.2677 10.1213 19.3857L8.01196 29.2295C8.01196 29.24 8.01196 29.2512 8.00704 29.2625C8.00211 29.2737 8.00704 29.2766 8.00704 29.2829C8.00668 29.2883 8.00668 29.2937 8.00704 29.2991C8.00634 29.3119 8.00634 29.3249 8.00704 29.3377H8V43.4705C7.99973 43.54 8.01316 43.6088 8.03954 43.673C8.06592 43.7372 8.10472 43.7956 8.15371 43.8448C8.20271 43.894 8.26093 43.933 8.32505 43.9597C8.38917 43.9863 8.45791 44 8.52734 44H43.4724C43.6123 44 43.7464 43.9444 43.8453 43.8455C43.9442 43.7467 43.9997 43.6125 43.9997 43.4727V29.3398C43.9997 29.3258 43.9997 29.3117 43.9997 29.2977ZM26.5272 9.05469H28.8475V10.5312H26.5272V9.05469ZM40.9369 20.0234L42.8199 28.8125H36.3357V26.9963L37.9578 27.9863C38.0375 28.0352 38.1287 28.0621 38.2221 28.0641C38.3156 28.0661 38.4079 28.0432 38.4896 27.9978C38.5712 27.9523 38.6393 27.8859 38.6869 27.8055C38.7344 27.725 38.7597 27.6333 38.7601 27.5398L38.7798 24.7498V24.7463C38.7797 24.6559 38.7564 24.567 38.7121 24.4882C38.6677 24.4094 38.6039 24.3433 38.5267 24.2963L31.5278 20.0234H40.9369ZM25.9999 13.1806L27.4448 14.4863H24.555L25.9999 13.1806ZM23.7126 15.541H28.2871V18.0455L27.3801 17.4922L26.2769 16.8186C26.1942 16.7679 26.099 16.741 26.002 16.741C25.9049 16.741 25.8098 16.7679 25.7271 16.8186L23.7126 18.0484V15.541ZM25.9999 17.8859L37.7251 25.0409L37.7138 26.6005L26.2769 19.6198C26.1942 19.5695 26.0992 19.5428 26.0023 19.5428C25.9055 19.5428 25.8105 19.5695 25.7278 19.6198L14.2901 26.6005L14.2796 25.0409L25.9999 17.8859ZM15.664 42.9453H9.05468V29.8672H15.664V42.9453ZM15.664 28.8125H9.17984L11.0628 20.0234H20.4762L13.471 24.2991C13.3832 24.3528 13.313 24.4308 13.2689 24.5237C13.2248 24.6166 13.2088 24.7204 13.2228 24.8223L13.2418 27.5398C13.2425 27.6791 13.2984 27.8125 13.3973 27.9107C13.4961 28.0088 13.6298 28.0639 13.7691 28.0637C13.8662 28.064 13.9614 28.0372 14.044 27.9863L15.6612 27.002L15.664 28.8125ZM17.9843 42.9453H16.7187V26.3551L17.9843 25.5816V42.9453ZM28.6014 42.9453H23.3983V34.8397C23.3983 34.1497 23.6724 33.488 24.1603 33.0001C24.6482 32.5122 25.3099 32.2381 25.9999 32.2381C26.6898 32.2381 27.3516 32.5122 27.8394 33.0001C28.3273 33.488 28.6014 34.1497 28.6014 34.8397V42.9453ZM32.9608 42.9453H29.6561V34.8397C29.6561 33.87 29.2709 32.94 28.5852 32.2543C27.8995 31.5686 26.9696 31.1834 25.9999 31.1834C25.0302 31.1834 24.1002 31.5686 23.4145 32.2543C22.7289 32.94 22.3436 33.87 22.3436 34.8397V42.9453H19.039V24.939L25.9999 20.6879L32.9608 24.9362V42.9453ZM35.2811 42.9453H34.0154V25.5781L35.2811 26.3516V42.9453ZM42.9451 42.9453H36.3357V29.8672H42.9451V42.9453ZM10.707 35.7383H13.8007C13.9406 35.7383 14.0747 35.6827 14.1736 35.5838C14.2725 35.4849 14.3281 35.3508 14.3281 35.2109V32.1172C14.3281 31.9773 14.2725 31.8432 14.1736 31.7443C14.0747 31.6454 13.9406 31.5898 13.8007 31.5898H10.707C10.5672 31.5898 10.433 31.6454 10.3341 31.7443C10.2352 31.8432 10.1797 31.9773 10.1797 32.1172V35.2109C10.1797 35.3508 10.2352 35.4849 10.3341 35.5838C10.433 35.6827 10.5672 35.7383 10.707 35.7383ZM11.2344 32.6445H13.2734V34.6836H11.2344V32.6445ZM25.4936 25.1464C25.432 25.1147 25.3648 25.0955 25.2958 25.0898C25.2268 25.0841 25.1573 25.0921 25.0914 25.1132C24.9582 25.156 24.8474 25.2498 24.7835 25.3742C24.7195 25.4986 24.7076 25.6433 24.7503 25.7765C24.793 25.9097 24.8869 26.0204 25.0113 26.0844L25.7552 26.4669L25.7664 26.4718C25.7812 26.4788 25.7967 26.4866 25.8121 26.4922C25.8276 26.4978 25.8445 26.5027 25.8607 26.507L25.8719 26.5105C25.9124 26.5202 25.954 26.5252 25.9957 26.5252H26.0027C26.0252 26.5252 26.0477 26.5252 26.073 26.5203L26.1046 26.5133C26.118 26.5133 26.1321 26.5084 26.1454 26.5048L26.1771 26.4936L26.2157 26.4781L26.2439 26.4641C26.2578 26.457 26.2714 26.4493 26.2846 26.4409L26.2952 26.4345L27.416 25.6766C27.4755 25.6387 27.5268 25.5894 27.5669 25.5314C27.607 25.4733 27.6351 25.4079 27.6494 25.3388C27.6638 25.2698 27.6641 25.1986 27.6505 25.1294C27.6368 25.0602 27.6094 24.9945 27.5699 24.936C27.5304 24.8776 27.4796 24.8277 27.4205 24.7893C27.3614 24.7509 27.2951 24.7247 27.2257 24.7123C27.1563 24.6999 27.0851 24.7016 27.0163 24.7172C26.9475 24.7329 26.8826 24.7621 26.8253 24.8033L25.9633 25.3862L25.4936 25.1464ZM38.0584 35.7383H41.1521C41.292 35.7383 41.4261 35.6827 41.525 35.5838C41.6239 35.4849 41.6794 35.3508 41.6794 35.2109V32.1172C41.6794 31.9773 41.6239 31.8432 41.525 31.7443C41.4261 31.6454 41.292 31.5898 41.1521 31.5898H38.0584C37.9185 31.5898 37.7844 31.6454 37.6855 31.7443C37.5866 31.8432 37.531 31.9773 37.531 32.1172V35.2109C37.531 35.3508 37.5866 35.4849 37.6855 35.5838C37.7844 35.6827 37.9185 35.7383 38.0584 35.7383ZM38.5857 32.6445H40.6248V34.6836H38.5857V32.6445Z" fill="#18171C"/>
<path fill-rule="evenodd" clip-rule="evenodd" d="M13.6211 35.1484H10.5273C10.3875 35.1484 10.2533 35.0929 10.1545 34.994C10.0556 34.8951 10 34.761 10 34.6211V31.5273C10 31.3875 10.0556 31.2534 10.1545 31.1545C10.2533 31.0556 10.3875 31 10.5273 31H13.6211C13.7609 31 13.8951 31.0556 13.994 31.1545C14.0928 31.2534 14.1484 31.3875 14.1484 31.5273V34.6211C14.1484 34.761 14.0928 34.8951 13.994 34.994C13.8951 35.0929 13.7609 35.1484 13.6211 35.1484ZM12.7458 34H11.2542C11.1868 34 11.1221 33.9732 11.0745 33.9255C11.0268 33.8779 11 33.8132 11 33.7458V32.2542C11 32.1868 11.0268 32.1221 11.0745 32.0745C11.1221 32.0268 11.1868 32 11.2542 32H12.7458C12.8132 32 12.8779 32.0268 12.9255 32.0745C12.9732 32.1221 13 32.1868 13 32.2542V33.7458C13 33.8132 12.9732 33.8779 12.9255 33.9255C12.8779 33.9732 12.8132 34 12.7458 34ZM41.6211 35.1484H38.5273C38.3875 35.1484 38.2533 35.0929 38.1545 34.994C38.0556 34.8951 38 34.761 38 34.6211V31.5273C38 31.3875 38.0556 31.2534 38.1545 31.1545C38.2533 31.0556 38.3875 31 38.5273 31H41.6211C41.7609 31 41.8951 31.0556 41.994 31.1545C42.0928 31.2534 42.1484 31.3875 42.1484 31.5273V34.6211C42.1484 34.761 42.0928 34.8951 41.994 34.994C41.8951 35.0929 41.7609 35.1484 41.6211 35.1484ZM40.7458 34H39.2542C39.1868 34 39.1221 33.9732 39.0745 33.9255C39.0268 33.8779 39 33.8132 39 33.7458V32.2542C39 32.1868 39.0268 32.1221 39.0745 32.0745C39.1221 32.0268 39.1868 32 39.2542 32H40.7458C40.8132 32 40.8779 32.0268 40.9255 32.0745C40.9732 32.1221 41 32.1868 41 32.2542V33.7458C41 33.8132 40.9732 33.8779 40.9255 33.9255C40.8779 33.9732 40.8132 34 40.7458 34ZM10.5273 41.1484H13.6211C13.7609 41.1484 13.8951 41.0929 13.994 40.994C14.0928 40.8951 14.1484 40.761 14.1484 40.6211V37.5273C14.1484 37.3875 14.0928 37.2534 13.994 37.1545C13.8951 37.0556 13.7609 37 13.6211 37H10.5273C10.3875 37 10.2533 37.0556 10.1545 37.1545C10.0556 37.2534 10 37.3875 10 37.5273V40.6211C10 40.761 10.0556 40.8951 10.1545 40.994C10.2533 41.0929 10.3875 41.1484 10.5273 41.1484ZM11.2542 40H12.7458C12.8132 40 12.8779 39.9732 12.9255 39.9255C12.9732 39.8779 13 39.8132 13 39.7458V38.2542C13 38.1868 12.9732 38.1221 12.9255 38.0745C12.8779 38.0268 12.8132 38 12.7458 38H11.2542C11.1868 38 11.1221 38.0268 11.0745 38.0745C11.0268 38.1221 11 38.1868 11 38.2542V39.7458C11 39.8132 11.0268 39.8779 11.0745 39.9255C11.1221 39.9732 11.1868 40 11.2542 40ZM41.6211 41.1484H38.5273C38.3875 41.1484 38.2533 41.0929 38.1545 40.994C38.0556 40.8951 38 40.761 38 40.6211V37.5273C38 37.3875 38.0556 37.2534 38.1545 37.1545C38.2533 37.0556 38.3875 37 38.5273 37H41.6211C41.7609 37 41.8951 37.0556 41.994 37.1545C42.0928 37.2534 42.1484 37.3875 42.1484 37.5273V40.6211C42.1484 40.761 42.0928 40.8951 41.994 40.994C41.8951 41.0929 41.7609 41.1484 41.6211 41.1484ZM40.7458 40H39.2542C39.1868 40 39.1221 39.9732 39.0745 39.9255C39.0268 39.8779 39 39.8132 39 39.7458V38.2542C39 38.1868 39.0268 38.1221 39.0745 38.0745C39.1221 38.0268 39.1868 38 39.2542 38H40.7458C40.8132 38 40.8779 38.0268 40.9255 38.0745C40.9732 38.1221 41 38.1868 41 38.2542V39.7458C41 39.8132 40.9732 39.8779 40.9255 39.9255C40.8779 39.9732 40.8132 40 40.7458 40Z" fill="#095D40"/>
</svg>
