<svg width="22" height="22" viewBox="0 0 22 22" fill="none" xmlns="http://www.w3.org/2000/svg">
<g clip-path="url(#clip0_2022_2030)">
<path d="M13.7959 4.58317C14.6912 4.75786 15.514 5.19574 16.1591 5.84078C16.8041 6.48582 17.242 7.30866 17.4167 8.204M13.7959 0.916504C15.656 1.12315 17.3906 1.95616 18.7149 3.27876C20.0392 4.60136 20.8744 6.33493 21.0834 8.19484M20.1667 15.5098V18.2598C20.1677 18.5151 20.1154 18.7678 20.0132 19.0017C19.9109 19.2357 19.7609 19.4456 19.5728 19.6182C19.3846 19.7908 19.1625 19.9222 18.9207 20.004C18.6789 20.0858 18.4226 20.1161 18.1684 20.0932C15.3476 19.7867 12.6381 18.8228 10.2575 17.279C8.0427 15.8716 6.16491 13.9938 4.75752 11.779C3.20833 9.38761 2.24424 6.66492 1.94335 3.8315C1.92045 3.57802 1.95057 3.32253 2.03181 3.08133C2.11305 2.84012 2.24363 2.61847 2.41522 2.43049C2.58682 2.24251 2.79567 2.09232 3.0285 1.98948C3.26132 1.88664 3.513 1.83341 3.76752 1.83317H6.51752C6.96238 1.82879 7.39366 1.98633 7.73097 2.27641C8.06827 2.56649 8.28859 2.96933 8.35085 3.40984C8.46692 4.2899 8.68218 5.154 8.99252 5.98567C9.11585 6.31377 9.14254 6.67034 9.06944 7.01314C8.99633 7.35595 8.82648 7.67061 8.58002 7.91984L7.41585 9.084C8.72078 11.3789 10.6209 13.2791 12.9159 14.584L14.08 13.4198C14.3293 13.1734 14.6439 13.0035 14.9867 12.9304C15.3295 12.8573 15.6861 12.884 16.0142 13.0073C16.8459 13.3177 17.71 13.5329 18.59 13.649C19.0353 13.7118 19.442 13.9361 19.7327 14.2792C20.0234 14.6223 20.1778 15.0603 20.1667 15.5098Z" stroke="white" stroke-width="2" stroke-linecap="round" stroke-linejoin="round"/>
</g>
<defs>
<clipPath id="clip0_2022_2030">
<rect width="22" height="22" fill="white"/>
</clipPath>
</defs>
</svg>
