<svg width="18" height="19" viewBox="0 0 18 19" fill="none" xmlns="http://www.w3.org/2000/svg">
<g clip-path="url(#clip0_4053_39)">
<path d="M11.2875 4.25C12.0201 4.39292 12.6933 4.75119 13.2211 5.27895C13.7488 5.80671 14.1071 6.47995 14.25 7.2125M11.2875 1.25C12.8095 1.41908 14.2287 2.10063 15.3122 3.18276C16.3957 4.26488 17.079 5.68326 17.25 7.205M16.5 13.19V15.44C16.5009 15.6489 16.4581 15.8556 16.3744 16.047C16.2907 16.2384 16.168 16.4102 16.0141 16.5514C15.8602 16.6926 15.6784 16.8001 15.4806 16.867C15.2827 16.9339 15.073 16.9588 14.865 16.94C12.5571 16.6892 10.3403 15.9006 8.39251 14.6375C6.58038 13.486 5.04401 11.9496 3.89251 10.1375C2.62499 8.1809 1.83619 5.95325 1.59001 3.635C1.57127 3.4276 1.59592 3.21857 1.66239 3.02122C1.72886 2.82387 1.83569 2.64252 1.97609 2.48872C2.11648 2.33491 2.28736 2.21203 2.47785 2.12789C2.66834 2.04375 2.87427 2.0002 3.08251 2H5.33251C5.69649 1.99642 6.04935 2.12531 6.32533 2.36265C6.60131 2.59999 6.78157 2.92959 6.83251 3.29C6.92748 4.01005 7.1036 4.71705 7.35751 5.3975C7.45842 5.66594 7.48026 5.95769 7.42044 6.23816C7.36062 6.51863 7.22166 6.77608 7.02001 6.98L6.06751 7.9325C7.13518 9.81016 8.68985 11.3648 10.5675 12.4325L11.52 11.48C11.7239 11.2784 11.9814 11.1394 12.2619 11.0796C12.5423 11.0198 12.8341 11.0416 13.1025 11.1425C13.783 11.3964 14.49 11.5725 15.21 11.6675C15.5743 11.7189 15.9071 11.9024 16.1449 12.1831C16.3828 12.4638 16.5091 12.8222 16.5 13.19Z" stroke="#02342E" stroke-width="2" stroke-linecap="round" stroke-linejoin="round"/>
</g>
<defs>
<clipPath id="clip0_4053_39">
<rect width="18" height="18" fill="white" transform="translate(0 0.5)"/>
</clipPath>
</defs>
</svg>
