<svg width="45" height="39" viewBox="0 0 45 39" fill="none" xmlns="http://www.w3.org/2000/svg">
<path d="M42.9885 0L45 4.1848C41.0536 5.85097 38.3333 7.65276 36.8391 9.59016C35.3448 11.4888 34.5977 13.4844 34.5977 15.5768C34.5977 17.3592 35.0383 18.7735 35.9195 19.8197C36.8008 20.8659 37.8161 21.7958 38.9655 22.6095C40.1149 23.4232 41.1303 24.4113 42.0115 25.5738C42.8927 26.6975 43.3333 28.2861 43.3333 30.3398C43.3333 32.7422 42.4521 34.7958 40.6897 36.5007C38.9272 38.1669 36.7433 39 34.1379 39C32.4521 39 30.7854 38.5738 29.1379 37.7213C27.5287 36.8301 26.1877 35.4158 25.1149 33.4784C24.0421 31.5022 23.5057 28.8674 23.5057 25.5738C23.5057 20.1103 25.0766 15.1699 28.2184 10.7526C31.3602 6.33532 36.2835 2.75112 42.9885 0ZM19.4828 0L21.4943 4.1848C17.5479 5.85097 14.8276 7.65276 13.3333 9.59016C11.8391 11.4888 11.092 13.4844 11.092 15.5768C11.092 17.3592 11.5326 18.7735 12.4138 19.8197C13.295 20.8659 14.3103 21.7958 15.4598 22.6095C16.6092 23.4232 17.6245 24.4113 18.5057 25.5738C19.387 26.6975 19.8276 28.2861 19.8276 30.3398C19.8276 32.7422 18.9464 34.7958 17.1839 36.5007C15.4215 38.1669 13.2375 39 10.6322 39C8.94636 39 7.27969 38.5738 5.63218 37.7213C4.02299 36.8301 2.68199 35.4158 1.6092 33.4784C0.536399 31.5022 0 28.8674 0 25.5738C0 20.1103 1.57088 15.1699 4.71264 10.7526C7.85441 6.33532 12.7778 2.75112 19.4828 0Z" fill="#02342E"/>
</svg>
