<svg width="52" height="52" viewBox="0 0 52 52" fill="none" xmlns="http://www.w3.org/2000/svg">
<path d="M20.3782 32.943C19.4568 32.7115 18.4323 32.4391 17.2542 32.1254C16.6928 31.976 16.0984 31.8177 15.4667 31.6511C15.3522 31.621 15.2508 31.5535 15.1784 31.4591C15.1059 31.3647 15.0664 31.2488 15.0662 31.1293V29.6207C16.5134 29.9795 17.7712 30.3152 18.8896 30.6143L19.6051 30.8052C19.6191 30.4417 19.7161 30.0865 19.8886 29.7671C19.6526 29.7044 19.4126 29.6403 19.1627 29.5733C17.9747 29.2556 16.6307 28.897 15.0662 28.512V22.3731L13.9995 22V31.1293C13.9998 31.4869 14.1175 31.8343 14.3341 32.1171C14.5508 32.4 14.8542 32.6024 15.1968 32.6927C15.8278 32.8596 16.4211 33.0173 16.9819 33.1668C18.339 33.528 19.5 33.8371 20.5328 34.0912C20.4094 33.7219 20.357 33.3322 20.3782 32.943ZM36.9328 28.5274C36.5334 28.6332 36.0952 28.7516 35.6262 28.8784C34.5915 29.1584 33.3718 29.4877 32.1283 29.7981C32.2969 30.1202 32.3889 30.4776 32.3968 30.8418C33.6176 30.536 34.827 30.2094 35.9019 29.9184C36.2654 29.8204 36.6099 29.7273 36.9328 29.6409V31.1493C36.9327 31.2662 36.8949 31.3799 36.8251 31.4733C36.7554 31.5667 36.6575 31.6346 36.5462 31.667C35.4387 31.9819 33.5614 32.4967 31.6214 32.9471C31.642 33.3341 31.5897 33.7215 31.4672 34.0888C33.4318 33.6441 35.4144 33.1073 36.8352 32.7034C37.1701 32.607 37.4648 32.4032 37.6749 32.1228C37.8849 31.8424 37.9989 31.5006 37.9995 31.149V22.0011L36.9328 22.3739V28.5274ZM27.2931 36C27.4128 36.0007 27.5318 35.9824 27.6459 35.9459C28.0271 35.7852 28.3415 35.4964 28.536 35.1285C28.6141 34.9948 28.7102 34.8727 28.8216 34.7656C28.9616 34.6903 29.1113 34.6351 29.2664 34.6017C29.6709 34.5321 30.0398 34.3252 30.312 34.0153C30.524 33.6642 30.6085 33.2497 30.551 32.8426C30.5352 32.6846 30.5418 32.5252 30.5707 32.3691C30.6378 32.2344 30.7225 32.1094 30.8227 31.9976C31.1166 31.6983 31.2971 31.3045 31.3328 30.8846C31.297 30.465 31.1165 30.0713 30.8227 29.7722C30.7225 29.6603 30.6378 29.5353 30.5707 29.4004C30.5418 29.2444 30.5352 29.0849 30.551 28.9269C30.6086 28.52 30.5242 28.1055 30.3123 27.7545C30.0401 27.4446 29.6714 27.2378 29.267 27.1681C29.1117 27.1347 28.9619 27.0794 28.8219 27.0039C28.7102 26.8969 28.6138 26.7745 28.5358 26.6405C28.3413 26.2728 28.0269 25.9843 27.6459 25.8237C27.2521 25.7345 26.84 25.7824 26.4766 25.9596C26.3245 26.0259 26.1639 26.07 25.9995 26.0905C25.8351 26.07 25.6745 26.0259 25.5224 25.9596C25.1592 25.7823 24.7471 25.7344 24.3534 25.8237C23.9724 25.9843 23.658 26.2728 23.4635 26.6405C23.3854 26.7745 23.2891 26.8968 23.1774 27.0039C23.0374 27.0792 22.8877 27.1344 22.7326 27.1678C22.3281 27.2375 21.9593 27.4443 21.687 27.7542C21.4751 28.1054 21.3907 28.5201 21.4483 28.9272C21.464 29.0852 21.4572 29.2446 21.4283 29.4007C21.3613 29.5355 21.2766 29.6605 21.1763 29.7722C20.8826 30.0715 20.7021 30.4652 20.6662 30.8849C20.7022 31.3045 20.8827 31.6981 21.1763 31.9973C21.2766 32.1091 21.3613 32.234 21.4283 32.3688C21.4572 32.5249 21.464 32.6844 21.4483 32.8424C21.3908 33.2493 21.4751 33.6638 21.687 34.0148C21.9591 34.3249 22.3278 34.5319 22.7323 34.6017C22.8875 34.635 23.0372 34.6902 23.1771 34.7656C23.2889 34.8726 23.3852 34.995 23.4632 35.1291C23.6578 35.4968 23.9723 35.7853 24.3534 35.9459C24.7471 36.0354 25.1592 35.9875 25.5224 35.8099C25.6746 35.7436 25.8353 35.6995 25.9998 35.6791C26.1641 35.6996 26.3246 35.7436 26.4766 35.8099C26.7357 35.9207 27.0121 35.9851 27.2931 36ZM25.1592 34.7974C25.0073 34.8662 24.8447 34.9078 24.6787 34.9204C24.5918 34.8924 24.4507 34.6811 24.348 34.5268C24.2042 34.2834 24.0183 34.068 23.7992 33.8907C23.5601 33.7362 23.2957 33.6257 23.0184 33.5641C22.8503 33.5325 22.6896 33.4685 22.5454 33.3757C22.505 33.2149 22.4945 33.0479 22.5144 32.8833C22.5409 32.5975 22.5162 32.3093 22.4416 32.0323C22.3405 31.7714 22.1936 31.531 22.008 31.3226C21.8918 31.177 21.7328 30.9772 21.7328 30.8849C21.7328 30.7926 21.8918 30.5928 22.008 30.4472C22.1936 30.2388 22.3405 29.9984 22.4416 29.7375C22.5162 29.4605 22.5409 29.1723 22.5144 28.8865C22.4945 28.7218 22.5049 28.5548 22.5451 28.3939C22.6895 28.3011 22.8502 28.2372 23.0184 28.2057C23.2959 28.1441 23.5603 28.0335 23.7995 27.8788C24.0183 27.7016 24.204 27.4862 24.3478 27.243C24.4507 27.0887 24.5918 26.8774 24.6784 26.8494C24.6892 26.8465 24.7004 26.8451 24.7115 26.8453C24.8654 26.8691 25.0159 26.9118 25.1595 26.9724C25.426 27.0866 25.7103 27.1528 25.9995 27.1678C26.2889 27.1528 26.5733 27.0867 26.84 26.9724C26.9918 26.903 27.1545 26.8614 27.3206 26.8494C27.4075 26.8774 27.5486 27.0887 27.6512 27.243C27.7951 27.4862 27.9808 27.7016 28.1998 27.8788C28.439 28.0335 28.7036 28.1442 28.9811 28.2057C29.1493 28.2374 29.3099 28.3014 29.4542 28.3941C29.4944 28.5548 29.5049 28.7217 29.4851 28.8862C29.4584 29.1722 29.4829 29.4606 29.5576 29.7378C29.6587 29.9986 29.8056 30.2388 29.9912 30.4469C30.1075 30.5928 30.2662 30.7926 30.2662 30.8849C30.2662 30.9772 30.1075 31.177 29.9915 31.3229C29.8058 31.531 29.6588 31.7712 29.5576 32.032C29.483 32.3091 29.4583 32.5974 29.4848 32.8833C29.5048 33.048 29.4943 33.2151 29.4539 33.3759C29.3095 33.4687 29.1488 33.5327 28.9806 33.5644C28.7032 33.6258 28.4387 33.7363 28.1995 33.891C27.9809 34.0682 27.7954 34.2834 27.6518 34.5266C27.5486 34.6808 27.4078 34.8924 27.3206 34.9204C27.1545 34.9081 26.9919 34.8665 26.84 34.7974C26.5733 34.6831 26.2889 34.617 25.9995 34.6019C25.7103 34.617 25.4259 34.6832 25.1592 34.7974Z" fill="black"/>
<path d="M27.9995 31C27.9995 30.6044 27.8822 30.2178 27.6625 29.8889C27.4427 29.56 27.1303 29.3036 26.7649 29.1522C26.3994 29.0009 25.9973 28.9613 25.6093 29.0384C25.2214 29.1156 24.865 29.3061 24.5853 29.5858C24.3056 29.8655 24.1151 30.2219 24.0379 30.6098C23.9608 30.9978 24.0004 31.3999 24.1518 31.7654C24.3031 32.1308 24.5595 32.4432 24.8884 32.6629C25.2173 32.8827 25.6039 33 25.9995 33C26.5297 32.9993 27.0381 32.7884 27.413 32.4135C27.7879 32.0386 27.9989 31.5302 27.9995 31ZM25.9995 32C25.8017 32 25.6084 31.9414 25.4439 31.8315C25.2795 31.7216 25.1513 31.5654 25.0756 31.3827C24.9999 31.2 24.9801 30.9989 25.0187 30.8049C25.0573 30.6109 25.1526 30.4327 25.2924 30.2929C25.4323 30.153 25.6104 30.0578 25.8044 30.0192C25.9984 29.9806 26.1995 30.0004 26.3822 30.0761C26.5649 30.1518 26.7211 30.28 26.831 30.4444C26.9409 30.6089 26.9995 30.8022 26.9995 31C26.9992 31.2651 26.8938 31.5193 26.7063 31.7068C26.5188 31.8943 26.2646 31.9997 25.9995 32Z" fill="#095D40"/>
<path d="M42.3208 19.1438C42.5177 19.07 42.6876 18.9396 42.8086 18.7694C42.9295 18.5993 42.996 18.3972 42.9994 18.1894C43.0028 17.9816 42.9429 17.7775 42.8275 17.6037C42.7121 17.4298 42.5465 17.294 42.3521 17.214L26.6034 11.1157C26.2182 10.9623 25.788 10.9614 25.4022 11.1131L9.62607 17.2229C9.43402 17.3068 9.27178 17.4455 9.16024 17.6211C9.04869 17.7968 8.99293 18.0013 9.00013 18.2084C9.00733 18.4156 9.07715 18.6159 9.20063 18.7836C9.3241 18.9512 9.49558 19.0786 9.69301 19.1493L25.4676 24.542C25.812 24.6597 26.1866 24.6597 26.5311 24.542L39.8123 20.0013V31.8702C38.6772 32.599 38.2985 35.5656 38.2276 36.2259C38.2033 36.4512 38.2272 36.679 38.2978 36.8946C38.3683 37.1102 38.4839 37.3088 38.6371 37.4776C38.7861 37.6414 38.9682 37.7725 39.1717 37.8625C39.3752 37.9525 39.5956 37.9993 39.8186 38H40.8681C41.0911 37.9993 41.3115 37.9525 41.515 37.8625C41.7185 37.7725 41.9007 37.6414 42.0496 37.4776C42.2028 37.3088 42.3184 37.1102 42.389 36.8946C42.4595 36.679 42.4834 36.4512 42.4592 36.2259C42.3883 35.5653 42.0095 32.5987 40.8745 31.8702V19.6382L42.3208 19.1438ZM41.4025 36.3365C41.4118 36.4156 41.4039 36.4958 41.3793 36.5716C41.3547 36.6475 41.314 36.7173 41.2599 36.7764C41.2109 36.8313 41.1507 36.8754 41.0831 36.9056C41.0156 36.9358 40.9423 36.9514 40.8681 36.9515H39.8186C39.7445 36.9514 39.6712 36.9358 39.6036 36.9056C39.5361 36.8754 39.4758 36.8313 39.4268 36.7764C39.3727 36.7173 39.332 36.6475 39.3074 36.5716C39.2828 36.4958 39.2749 36.4156 39.2842 36.3365C39.4866 34.4515 40.0271 33.0257 40.3432 32.7767C40.6593 33.0257 41.2001 34.4515 41.4025 36.3365ZM26.1829 23.5516C26.0639 23.5917 25.9348 23.5917 25.8158 23.5516L10.0723 18.1755L25.7967 12.0861C25.8622 12.0596 25.9324 12.0463 26.0032 12.0467C26.074 12.0472 26.144 12.0614 26.2092 12.0887L41.9176 18.1718L26.1829 23.5516Z" fill="black"/>
<path d="M25.999 17C24.5273 17 23.0373 17.5433 23.0373 18.5823C23.0373 19.6214 24.5273 20.1647 25.999 20.1647C27.4708 20.1647 28.9608 19.6214 28.9608 18.5823C28.9608 17.5433 27.4708 17 25.999 17ZM25.999 19.1098C24.8162 19.1098 24.1622 18.7197 24.1132 18.5934C24.1622 18.4452 24.8162 18.0549 25.999 18.0549C27.1541 18.0549 27.8049 18.4268 27.8808 18.5823C27.8049 18.7379 27.1538 19.1098 25.999 19.1098ZM30.7103 35.1553C30.4058 35.3585 30.0681 35.5092 29.7117 35.6008L31.5631 38.141L30.5504 38.0407C30.4455 38.027 30.3387 38.0344 30.2368 38.0627C30.1349 38.091 30.0401 38.1394 29.9581 38.205C29.8085 38.3246 29.7117 38.496 29.688 38.6837L29.5168 39.5121L27.6732 37.0143C27.552 37.0339 27.4294 37.0439 27.3065 37.0441C26.9293 37.0349 26.5566 36.9611 26.2053 36.826L29.0612 40.6954C29.1524 40.8156 29.2781 40.9064 29.4222 40.9564C29.5664 41.0064 29.7224 41.0133 29.8705 40.9762C30.0187 40.939 30.1522 40.8596 30.254 40.7479C30.3559 40.6363 30.4216 40.4974 30.4427 40.3491L30.6977 39.1157L32.1314 39.257C32.2792 39.2765 32.4295 39.2537 32.5642 39.1912C32.699 39.1288 32.8124 39.0295 32.8907 38.9052C32.9669 38.7835 33.0046 38.6425 32.999 38.4998C32.9934 38.3572 32.9447 38.2194 32.8592 38.1038L30.7103 35.1553ZM24.3254 37.0138L22.4813 39.5121L22.3101 38.684C22.2867 38.4963 22.1901 38.3248 22.0406 38.2053C21.9584 38.1399 21.8635 38.0915 21.7617 38.0633C21.6598 38.035 21.5532 38.0275 21.4482 38.041L20.4356 38.141L22.2867 35.6005C21.9302 35.509 21.5923 35.3585 21.2877 35.1553L19.1429 38.099C19.0561 38.2148 19.0064 38.3533 19.0002 38.4968C18.9939 38.6403 19.0314 38.7824 19.1079 38.905C19.1859 39.0295 19.2993 39.1291 19.4341 39.1916C19.5689 39.2541 19.7194 39.2769 19.8672 39.257L21.3009 39.1157L21.5562 40.3491C21.586 40.5272 21.6782 40.6895 21.8169 40.8083C21.9555 40.9271 22.1321 40.9948 22.3163 41C22.4376 41.0001 22.5573 40.9722 22.6656 40.9186C22.774 40.865 22.8679 40.7872 22.9398 40.6914L25.7925 36.8268C25.3281 37.012 24.8227 37.0765 24.3254 37.0138Z" fill="#095D40"/>
</svg>
