<svg width="52" height="52" viewBox="0 0 52 52" fill="none" xmlns="http://www.w3.org/2000/svg">
<path d="M26.0027 9.00001C25.6414 9.00001 25.2783 9.1333 25.0038 9.39991L15.3606 18.7558C15.0965 19.0131 14.9482 19.362 14.9482 19.7258C14.9482 20.0896 15.0965 20.4385 15.3606 20.6959C15.9102 21.2285 16.8069 21.2285 17.3565 20.6959L18.932 19.1676V24.4579L8.77196 29.4541C8.43878 29.6188 8.18635 29.9056 8.07006 30.2513C7.95377 30.5971 7.98312 30.9737 8.15166 31.2984H8.15295C8.32358 31.6222 8.61858 31.8672 8.97379 31.9803C9.329 32.0934 9.71572 32.0654 10.0498 31.9024L10.5705 31.6458V42.6871C10.5705 42.7701 10.6044 42.8496 10.6646 42.9083C10.7249 42.967 10.8067 43 10.8919 43H19.2482H19.254H41.109C41.1942 43 41.276 42.967 41.3363 42.9083C41.3965 42.8496 41.4304 42.7701 41.4304 42.6871V31.6471L41.9498 31.9024C42.2841 32.0655 42.671 32.0935 43.0264 31.9804C43.3818 31.8673 43.6771 31.6223 43.8479 31.2984C44.0166 30.9739 44.0463 30.5975 43.9303 30.2518C43.8144 29.9061 43.5624 29.6192 43.2296 29.4541L33.0734 24.4617V19.1688L34.6483 20.6959C35.1979 21.2285 36.0946 21.2285 36.6442 20.6959C36.9082 20.4385 37.0566 20.0896 37.0566 19.7258C37.0566 19.362 36.9082 19.0131 36.6442 18.7558L27.001 9.3993C26.8698 9.27221 26.7141 9.17154 26.5429 9.10303C26.3718 9.03452 26.1878 8.99951 26.0027 9.00001ZM26.0027 9.62085C26.1987 9.62085 26.3942 9.69593 26.5465 9.84363L36.191 19.1995C36.4963 19.4955 36.4963 19.9568 36.191 20.2534C36.1198 20.3237 36.035 20.3795 35.9415 20.4177C35.848 20.4558 35.7476 20.4754 35.6462 20.4754C35.5448 20.4754 35.4445 20.4558 35.3509 20.4177C35.2574 20.3795 35.1726 20.3237 35.1014 20.2534L26.229 11.6455C26.1687 11.5872 26.0873 11.5545 26.0024 11.5545C25.9175 11.5545 25.836 11.5872 25.7758 11.6455L16.9033 20.2528C16.8321 20.3231 16.7473 20.3789 16.6538 20.417C16.5603 20.4551 16.4599 20.4747 16.3585 20.4747C16.2572 20.4747 16.1568 20.4551 16.0633 20.417C15.9697 20.3789 15.8849 20.3231 15.8138 20.2528C15.7414 20.1844 15.6839 20.1025 15.6446 20.012C15.6053 19.9216 15.5851 19.8244 15.5851 19.7261C15.5851 19.6279 15.6053 19.5307 15.6446 19.4403C15.6839 19.3498 15.7414 19.2679 15.8138 19.1995L25.4582 9.84302C25.6106 9.69532 25.8073 9.62085 26.0027 9.62085ZM26.0027 12.3089L32.4306 18.5442V42.3741H30.5023V32.7335C30.5012 32.6773 30.4872 32.622 30.4614 32.5716C30.4356 32.5213 30.3986 32.4772 30.3531 32.4425C30.2813 32.3887 30.193 32.3601 30.1024 32.3611H21.903C21.8515 32.3596 21.8002 32.3681 21.7521 32.3861C21.704 32.4041 21.6601 32.4313 21.623 32.466C21.5858 32.5008 21.5561 32.5424 21.5357 32.5884C21.5152 32.6345 21.5044 32.684 21.5038 32.7341V42.3741H19.5754V18.5442L26.0027 12.3089ZM26.0027 16.7148C23.5215 16.7148 21.5031 18.68 21.5031 21.0958C21.5031 23.5116 23.5215 25.4767 26.0027 25.4767C28.4839 25.4767 30.5023 23.5116 30.5023 21.0958C30.5023 18.68 28.4839 16.7148 26.0027 16.7148ZM26.0027 17.3407C28.1368 17.3407 29.8595 19.018 29.8595 21.0958C29.8595 23.173 28.1368 24.8509 26.0027 24.8509C23.8686 24.8509 22.1459 23.173 22.1459 21.0958C22.1459 19.018 23.8686 17.3407 26.0027 17.3407ZM25.9976 18.6137C25.9125 18.615 25.8315 18.6491 25.7722 18.7084C25.713 18.7678 25.6803 18.8476 25.6813 18.9304V20.5664C25.5853 20.6199 25.5052 20.6967 25.4489 20.7894C25.3925 20.8821 25.3619 20.9875 25.3599 21.0952C25.3599 21.4375 25.6517 21.721 26.0027 21.721C26.1132 21.7191 26.2213 21.6892 26.3164 21.6344C26.4115 21.5795 26.4904 21.5015 26.5452 21.4081H27.7112C27.7965 21.4081 27.8782 21.3752 27.9385 21.3165C27.9988 21.2578 28.0326 21.1782 28.0326 21.0952C28.0326 21.0122 27.9988 20.9326 27.9385 20.8739C27.8782 20.8152 27.7965 20.7823 27.7112 20.7823H26.5452C26.4909 20.6936 26.415 20.6195 26.3241 20.5664V18.9304C26.3246 18.8885 26.3165 18.847 26.3003 18.8083C26.284 18.7696 26.26 18.7344 26.2295 18.7049C26.1991 18.6753 26.1629 18.6521 26.123 18.6364C26.0832 18.6207 26.0405 18.613 25.9976 18.6137ZM18.932 25.1601V26.8342L9.75929 31.3435C9.6693 31.3888 9.57096 31.4161 9.47 31.424C9.36904 31.4319 9.26748 31.4201 9.17123 31.3894C9.07498 31.3587 8.98596 31.3097 8.90936 31.2452C8.83276 31.1807 8.7701 31.102 8.72503 31.0136C8.67799 30.9267 8.64937 30.8314 8.64089 30.7335C8.6324 30.6355 8.64422 30.537 8.67564 30.4436C8.70706 30.3502 8.75744 30.2638 8.82378 30.1898C8.89013 30.1157 8.97109 30.0553 9.06186 30.0123L18.932 25.1601ZM33.0734 25.1601L42.939 30.0105C43.3234 30.1988 43.4713 30.6376 43.2752 31.0112C43.23 31.0996 43.1672 31.1782 43.0905 31.2428C43.0138 31.3073 42.9247 31.3563 42.8283 31.387C42.732 31.4177 42.6303 31.4294 42.5292 31.4215C42.4282 31.4136 42.3298 31.3863 42.2397 31.341L33.0734 26.8349V25.1601ZM18.932 27.5333V42.3722H11.2133V31.3279L18.932 27.5333ZM33.0734 27.5333L40.787 31.3253V42.3691H33.0734V27.5333ZM12.8672 32.3555C12.7726 32.3546 12.6815 32.3901 12.6135 32.4541C12.5455 32.5182 12.5062 32.6057 12.504 32.6978V37.6458C12.505 37.6998 12.5188 37.7529 12.5443 37.8009C12.5699 37.8489 12.6064 37.8905 12.6512 37.9224C12.7141 37.9664 12.7898 37.9894 12.8672 37.9881H17.2826C17.3295 37.989 17.3762 37.9808 17.42 37.964C17.4637 37.9472 17.5036 37.9222 17.5374 37.8904C17.5712 37.8586 17.5982 37.8206 17.6169 37.7787C17.6356 37.7367 17.6456 37.6916 17.6464 37.6458V32.6978C17.6456 32.6521 17.6356 32.6069 17.6169 32.565C17.5982 32.523 17.5712 32.485 17.5374 32.4532C17.5036 32.4214 17.4637 32.3964 17.42 32.3796C17.3762 32.3629 17.3295 32.3547 17.2826 32.3555H12.8672ZM34.7222 32.3555C34.6276 32.3546 34.5365 32.3901 34.4685 32.4541C34.4005 32.5182 34.3612 32.6057 34.359 32.6978V37.6458C34.36 37.6998 34.3738 37.7529 34.3993 37.8009C34.4249 37.8489 34.4614 37.8905 34.5062 37.9224C34.5691 37.9664 34.6448 37.9894 34.7222 37.9881H39.1375C39.1845 37.989 39.2312 37.9808 39.275 37.964C39.3187 37.9472 39.3586 37.9222 39.3924 37.8904C39.4262 37.8586 39.4532 37.8206 39.4719 37.7787C39.4906 37.7367 39.5006 37.6916 39.5014 37.6458V32.6978C39.5006 32.6521 39.4906 32.6069 39.4719 32.565C39.4532 32.523 39.4262 32.485 39.3924 32.4532C39.3586 32.4214 39.3187 32.3964 39.275 32.3796C39.2312 32.3629 39.1845 32.3547 39.1375 32.3555H34.7222ZM13.1468 32.9813H14.7538V34.8589H13.1468V32.9813ZM15.3966 32.9813H17.0036V34.8589H15.3966V32.9813ZM22.1459 32.9813H25.6813V42.3691H22.1459V32.9813ZM26.3241 32.9813H29.8595V42.3691H26.3241V32.9813ZM35.0018 32.9813H36.6088V34.8589H35.0018V32.9813ZM37.2516 32.9813H38.8586V34.8589H37.2516V32.9813ZM13.1468 35.4847H14.7538V37.3623H13.1468V35.4847ZM15.3966 35.4847H17.0036V37.3623H15.3966V35.4847ZM35.0018 35.4847H36.6088V37.3623H35.0018V35.4847ZM37.2516 35.4847H38.8586V37.3623H37.2516V35.4847ZM24.3906 36.1106C24.3055 36.1119 24.2245 36.146 24.1653 36.2053C24.106 36.2647 24.0733 36.3445 24.0743 36.4273V37.6715C24.0743 37.7545 24.1082 37.834 24.1684 37.8927C24.2287 37.9514 24.3105 37.9844 24.3957 37.9844C24.4809 37.9844 24.5627 37.9514 24.623 37.8927C24.6832 37.834 24.7171 37.7545 24.7171 37.6715V36.4273C24.7176 36.3854 24.7095 36.3439 24.6933 36.3052C24.677 36.2664 24.653 36.2313 24.6225 36.2017C24.5921 36.1722 24.5559 36.1489 24.516 36.1333C24.4762 36.1176 24.4335 36.1099 24.3906 36.1106ZM27.6045 36.1106C27.5195 36.1119 27.4385 36.146 27.3792 36.2053C27.32 36.2647 27.2872 36.3445 27.2883 36.4273V37.6715C27.2883 37.7545 27.3221 37.834 27.3824 37.8927C27.4427 37.9514 27.5244 37.9844 27.6097 37.9844C27.6949 37.9844 27.7767 37.9514 27.8369 37.8927C27.8972 37.834 27.9311 37.7545 27.9311 37.6715V36.4273C27.9316 36.3854 27.9235 36.3439 27.9073 36.3052C27.891 36.2664 27.867 36.2313 27.8365 36.2017C27.8061 36.1722 27.7699 36.1489 27.73 36.1333C27.6902 36.1176 27.6475 36.1099 27.6045 36.1106Z" fill="black"/>
<path fill-rule="evenodd" clip-rule="evenodd" d="M34 32.5C34 32.2239 34.2239 32 34.5 32H39.5C39.7761 32 40 32.2239 40 32.5V37.5C40 37.7761 39.7761 38 39.5 38H34.5C34.2239 38 34 37.7761 34 37.5V32.5ZM34.8572 32.8555H36.5715V34.5698H34.8572V32.8555ZM36.5715 35.4297H34.8572V37.144H36.5715V35.4297ZM37.4285 32.8555H39.1428V34.5698H37.4285V32.8555ZM39.1428 35.4297H37.4285V37.144H39.1428V35.4297Z" fill="#095D40"/>
<path fill-rule="evenodd" clip-rule="evenodd" d="M12 32.5C12 32.2239 12.2239 32 12.5 32H17.5C17.7761 32 18 32.2239 18 32.5V37.5C18 37.7761 17.7761 38 17.5 38H12.5C12.2239 38 12 37.7761 12 37.5V32.5ZM12.8572 32.8555H14.5715V34.5698H12.8572V32.8555ZM14.5715 35.4297H12.8572V37.144H14.5715V35.4297ZM15.4285 32.8555H17.1428V34.5698H15.4285V32.8555ZM17.1428 35.4297H15.4285V37.144H17.1428V35.4297Z" fill="#095D40"/>
</svg>
