<svg width="52" height="52" viewBox="0 0 52 52" fill="none" xmlns="http://www.w3.org/2000/svg">
<path d="M40.6253 17.0789H35.6974V17.0633C35.6974 15.7659 34.6385 14.7105 33.3369 14.7105H26.1457V12.0482H29.7895C30.1529 12.0482 30.4474 11.7537 30.4474 11.3903V8.65789C30.4474 8.29454 30.1529 8 29.7895 8H25.4878C25.1245 8 24.8299 8.29454 24.8299 8.65789V14.7105H17.6439C16.3311 14.7105 15.3026 15.7439 15.3026 17.0633V17.0789H10.3555C9.05671 17.0789 8 18.1567 8 19.4814V42.3421C8 42.7055 8.29454 43 8.65789 43H42.3421C42.7055 43 43 42.7055 43 42.3421V19.4814C43 18.1567 41.9347 17.0789 40.6253 17.0789ZM29.1316 10.7324H26.1457V9.31579H29.1316V10.7324ZM9.31579 19.4814C9.31579 18.8924 9.79191 18.3947 10.3555 18.3947H15.3026V41.6842H9.31579V19.4814ZM16.6184 17.7368V17.0633C16.6184 16.4818 17.0689 16.0263 17.6439 16.0263H25.4182C25.4645 16.0312 25.5112 16.0312 25.5575 16.0263H33.337C33.9228 16.0263 34.3816 16.4818 34.3816 17.0633V41.6842H32.0132V33.1316C32.0132 32.7682 31.7187 32.4737 31.3553 32.4737H19.5789C19.2156 32.4737 18.9211 32.7682 18.9211 33.1316V41.6842H16.6184V17.7368ZM20.2368 33.7895H24.7763V41.6842H20.2368V33.7895ZM26.0921 41.6842V33.7895H30.6974V41.6842H26.0921ZM41.6842 41.6842H35.6974V18.3947H40.6253C41.1993 18.3947 41.6842 18.8924 41.6842 19.4814V41.6842Z" fill="black"/>
<path d="M13.2348 20.0237H10.6739C10.3017 20.0237 10 20.316 10 20.6766V23.1573C10 23.5178 10.3017 23.8101 10.6739 23.8101H13.2348C13.607 23.8101 13.9087 23.5178 13.9087 23.1573V20.6766C13.9087 20.316 13.607 20.0237 13.2348 20.0237ZM12.5609 22.5045H11.3478V21.3294H12.5609V22.5045ZM13.2348 25.4421H10.6739C10.3017 25.4421 10 25.7344 10 26.095V28.5757C10 28.9362 10.3017 29.2285 10.6739 29.2285H13.2348C13.607 29.2285 13.9087 28.9362 13.9087 28.5757V26.095C13.9087 25.7344 13.607 25.4421 13.2348 25.4421ZM12.5609 27.9228H11.3478V26.7478H12.5609V27.9228ZM13.2348 30.7953H10.6739C10.3017 30.7953 10 31.0875 10 31.4481V33.9288C10 34.2893 10.3017 34.5816 10.6739 34.5816H13.2348C13.607 34.5816 13.9087 34.2893 13.9087 33.9288V31.4481C13.9087 31.0875 13.607 30.7953 13.2348 30.7953ZM12.5609 33.276H11.3478V32.1009H12.5609V33.276ZM13.2348 36.2136H10.6739C10.3017 36.2136 10 36.5059 10 36.8665V39.3472C10 39.7077 10.3017 40 10.6739 40H13.2348C13.607 40 13.9087 39.7077 13.9087 39.3472V36.8665C13.9087 36.5059 13.607 36.2136 13.2348 36.2136ZM12.5609 38.6944H11.3478V37.5193H12.5609V38.6944ZM40.3261 20.0237H37.7652C37.393 20.0237 37.0913 20.316 37.0913 20.6766V23.1573C37.0913 23.5178 37.393 23.8101 37.7652 23.8101H40.3261C40.6983 23.8101 41 23.5178 41 23.1573V20.6766C41 20.316 40.6983 20.0237 40.3261 20.0237ZM39.6522 22.5045H38.4391V21.3294H39.6522V22.5045ZM40.3261 25.4421H37.7652C37.393 25.4421 37.0913 25.7344 37.0913 26.095V28.5757C37.0913 28.9362 37.393 29.2285 37.7652 29.2285H40.3261C40.6983 29.2285 41 28.9362 41 28.5757V26.095C41 25.7344 40.6983 25.4421 40.3261 25.4421ZM39.6522 27.9228H38.4391V26.7478H39.6522V27.9228ZM40.3261 30.7953H37.7652C37.393 30.7953 37.0913 31.0875 37.0913 31.4481V33.9288C37.0913 34.2893 37.393 34.5816 37.7652 34.5816H40.3261C40.6983 34.5816 41 34.2893 41 33.9288V31.4481C41 31.0875 40.6983 30.7953 40.3261 30.7953ZM39.6522 33.276H38.4391V32.1009H39.6522V33.276ZM40.3261 36.2136H37.7652C37.393 36.2136 37.0913 36.5059 37.0913 36.8665V39.3472C37.0913 39.7077 37.393 40 37.7652 40H40.3261C40.6983 40 41 39.7077 41 39.3472V36.8665C41 36.5059 40.6983 36.2136 40.3261 36.2136ZM39.6522 38.6944H38.4391V37.5193H39.6522V38.6944ZM19.4348 23.7448H24.0174C24.3896 23.7448 24.6913 23.4525 24.6913 23.092V18.6528C24.6913 18.2923 24.3896 18 24.0174 18H19.4348C19.0626 18 18.7609 18.2923 18.7609 18.6528V23.092C18.7609 23.4525 19.0626 23.7448 19.4348 23.7448ZM20.1087 19.3056H23.3435V22.4392H20.1087V19.3056ZM26.9152 23.7448H31.4978C31.87 23.7448 32.1717 23.4525 32.1717 23.092V18.6528C32.1717 18.2923 31.87 18 31.4978 18H26.9152C26.543 18 26.2413 18.2923 26.2413 18.6528V23.092C26.2413 23.4525 26.543 23.7448 26.9152 23.7448ZM27.5891 19.3056H30.8239V22.4392H27.5891V19.3056ZM19.4348 30.73H24.0174C24.3896 30.73 24.6913 30.4377 24.6913 30.0772V25.638C24.6913 25.2774 24.3896 24.9852 24.0174 24.9852H19.4348C19.0626 24.9852 18.7609 25.2774 18.7609 25.638V30.0772C18.7609 30.4377 19.0626 30.73 19.4348 30.73ZM20.1087 26.2908H23.3435V29.4243H20.1087V26.2908ZM26.9152 30.73H31.4978C31.87 30.73 32.1717 30.4377 32.1717 30.0772V25.638C32.1717 25.2774 31.87 24.9852 31.4978 24.9852H26.9152C26.543 24.9852 26.2413 25.2774 26.2413 25.638V30.0772C26.2413 30.4377 26.543 30.73 26.9152 30.73ZM27.5891 26.2908H30.8239V29.4243H27.5891V26.2908Z" fill="#095D40"/>
</svg>
